<svg xmlns="http://www.w3.org/2000/svg" viewBox="0 0 100 100">
  <defs>
    <linearGradient id="gradient" x1="0%" y1="0%" x2="100%" y2="100%">
      <stop offset="0%" style="stop-color:#2563eb;stop-opacity:1" />
      <stop offset="100%" style="stop-color:#1d4ed8;stop-opacity:1" />
    </linearGradient>
  </defs>
  
  <!-- Background circle -->
  <circle cx="50" cy="50" r="45" fill="url(#gradient)" stroke="#1e40af" stroke-width="2"/>
  
  <!-- Table grid -->
  <g stroke="white" stroke-width="2" fill="none">
    <!-- Horizontal lines -->
    <line x1="20" y1="30" x2="80" y2="30"/>
    <line x1="20" y1="45" x2="80" y2="45"/>
    <line x1="20" y1="60" x2="80" y2="60"/>
    <line x1="20" y1="75" x2="80" y2="75"/>
    
    <!-- Vertical lines -->
    <line x1="35" y1="20" x2="35" y2="80"/>
    <line x1="50" y1="20" x2="50" y2="80"/>
    <line x1="65" y1="20" x2="65" y2="80"/>
  </g>
  
  <!-- Header row highlight -->
  <rect x="20" y="20" width="60" height="10" fill="rgba(255,255,255,0.3)"/>
  
  <!-- Chart elements -->
  <g fill="white" opacity="0.8">
    <!-- Mini bar chart in first cell -->
    <rect x="22" y="32" width="2" height="8"/>
    <rect x="25" y="35" width="2" height="5"/>
    <rect x="28" y="33" width="2" height="7"/>
    <rect x="31" y="37" width="2" height="3"/>
    
    <!-- Mini line chart in second cell -->
    <polyline points="37,38 40,36 43,39 46,35 49,37" stroke="white" stroke-width="1.5" fill="none"/>
    
    <!-- Mini histogram in third cell -->
    <rect x="52" y="36" width="1.5" height="4"/>
    <rect x="54" y="33" width="1.5" height="7"/>
    <rect x="56" y="35" width="1.5" height="5"/>
    <rect x="58" y="32" width="1.5" height="8"/>
    <rect x="60" y="37" width="1.5" height="3"/>
    <rect x="62" y="34" width="1.5" height="6"/>
  </g>
</svg>